HIERARCHY
ROOT mixamorig:Hips
{
	OFFSET -0.000008 104.274872 1.554316
	CHANNELS 6 Xposition Yposition Zposition Xrotation Yrotation Zrotation
	JOINT mixamorig:Spine
	{
		OFFSET -0.000005 10.181595 0.131519
		CHANNELS 6 Xposition Yposition Zposition Xrotation Yrotation Zrotation
		JOINT mixamorig:Spine1
		{
			OFFSET -0.000000 9.893959 -1.470707
			CHANNELS 6 Xposition Yposition Zposition Xrotation Yrotation Zrotation
			JOINT mixamorig:Spine2
			{
				OFFSET -0.000000 9.220757 -1.370641
				CHANNELS 6 Xposition Yposition Zposition Xrotation Yrotation Zrotation
				JOINT mixamorig:Neck
				{
					OFFSET 0.000001 16.740417 -2.049036
					CHANNELS 6 Xposition Yposition Zposition Xrotation Yrotation Zrotation
					JOINT mixamorig:Head
					{
						OFFSET 0.000000 9.617874 1.685006
						CHANNELS 6 Xposition Yposition Zposition Xrotation Yrotation Zrotation
						JOINT mixamorig:HeadTop_End
						{
							OFFSET 0.000002 22.037354 7.501101
							CHANNELS 6 Xposition Yposition Zposition Xrotation Yrotation Zrotation
							End Site
							{
								OFFSET 0.000168 2310.654297 -282.823242
							}
						}
					}
				}
				JOINT mixamorig:RightShoulder
				{
					OFFSET -4.569970 11.014908 -2.160885
					CHANNELS 6 Xposition Yposition Zposition Xrotation Yrotation Zrotation
					JOINT mixamorig:RightArm
					{
						OFFSET -10.592851 -0.524811 -2.232101
						CHANNELS 6 Xposition Yposition Zposition Xrotation Yrotation Zrotation
						JOINT mixamorig:RightForeArm
						{
							OFFSET -27.841511 0.000031 -0.000004
							CHANNELS 6 Xposition Yposition Zposition Xrotation Yrotation Zrotation
							JOINT mixamorig:RightHand
							{
								OFFSET -28.328831 -0.000015 0.000015
								CHANNELS 6 Xposition Yposition Zposition Xrotation Yrotation Zrotation
								JOINT mixamorig:RightHandThumb1
								{
									OFFSET -2.464806 -1.573990 2.681852
									CHANNELS 6 Xposition Yposition Zposition Xrotation Yrotation Zrotation
									JOINT mixamorig:RightHandThumb2
									{
										OFFSET -3.215179 -1.872803 1.924282
										CHANNELS 6 Xposition Yposition Zposition Xrotation Yrotation Zrotation
										JOINT mixamorig:RightHandThumb3
										{
											OFFSET -2.654831 -1.527969 1.512609
											CHANNELS 6 Xposition Yposition Zposition Xrotation Yrotation Zrotation
											JOINT mixamorig:RightHandThumb4
											{
												OFFSET -2.018814 -1.152008 1.108052
												CHANNELS 6 Xposition Yposition Zposition Xrotation Yrotation Zrotation
												End Site
												{
													OFFSET -188.809540 -114.533607 132.431396
												}
											}
										}
									}
								}
								JOINT mixamorig:RightHandIndex1
								{
									OFFSET -9.108284 -0.517868 2.259835
									CHANNELS 6 Xposition Yposition Zposition Xrotation Yrotation Zrotation
									JOINT mixamorig:RightHandIndex2
									{
										OFFSET -3.699989 0.000000 0.001215
										CHANNELS 6 Xposition Yposition Zposition Xrotation Yrotation Zrotation
										JOINT mixamorig:RightHandIndex3
										{
											OFFSET -2.850006 0.000031 -0.000522
											CHANNELS 6 Xposition Yposition Zposition Xrotation Yrotation Zrotation
											JOINT mixamorig:RightHandIndex4
											{
												OFFSET -2.772186 -0.000015 -0.000020
												CHANNELS 6 Xposition Yposition Zposition Xrotation Yrotation Zrotation
												End Site
												{
													OFFSET -277.218445 0.000000 -0.050231
												}
											}
										}
									}
								}
								JOINT mixamorig:RightHandMiddle1
								{
									OFFSET -9.532516 -0.000031 -0.000023
									CHANNELS 6 Xposition Yposition Zposition Xrotation Yrotation Zrotation
									JOINT mixamorig:RightHandMiddle2
									{
										OFFSET -3.700005 -0.000015 0.003713
										CHANNELS 6 Xposition Yposition Zposition Xrotation Yrotation Zrotation
										JOINT mixamorig:RightHandMiddle3
										{
											OFFSET -2.949974 0.000015 -0.002054
											CHANNELS 6 Xposition Yposition Zposition Xrotation Yrotation Zrotation
											JOINT mixamorig:RightHandMiddle4
											{
												OFFSET -2.946640 0.000000 -0.000156
												CHANNELS 6 Xposition Yposition Zposition Xrotation Yrotation Zrotation
												End Site
												{
													OFFSET -294.664337 0.000000 -0.113670
												}
											}
										}
									}
								}
								JOINT mixamorig:RightHandRing1
								{
									OFFSET -9.103600 -0.043076 -1.865134
									CHANNELS 6 Xposition Yposition Zposition Xrotation Yrotation Zrotation
									JOINT mixamorig:RightHandRing2
									{
										OFFSET -3.379288 0.000000 -0.001055
										CHANNELS 6 Xposition Yposition Zposition Xrotation Yrotation Zrotation
										JOINT mixamorig:RightHandRing3
										{
											OFFSET -2.889687 -0.000015 0.000379
											CHANNELS 6 Xposition Yposition Zposition Xrotation Yrotation Zrotation
											JOINT mixamorig:RightHandRing4
											{
												OFFSET -2.638809 -0.000015 0.000941
												CHANNELS 6 Xposition Yposition Zposition Xrotation Yrotation Zrotation
												End Site
												{
													OFFSET -263.880371 0.000000 0.516020
												}
											}
										}
									}
								}
								JOINT mixamorig:RightHandPinky1
								{
									OFFSET -8.076683 -0.486710 -3.806280
									CHANNELS 6 Xposition Yposition Zposition Xrotation Yrotation Zrotation
									JOINT mixamorig:RightHandPinky2
									{
										OFFSET -3.600014 -0.000015 -0.003747
										CHANNELS 6 Xposition Yposition Zposition Xrotation Yrotation Zrotation
										JOINT mixamorig:RightHandPinky3
										{
											OFFSET -2.099983 0.000000 -0.005739
											CHANNELS 6 Xposition Yposition Zposition Xrotation Yrotation Zrotation
											JOINT mixamorig:RightHandPinky4
											{
												OFFSET -2.115768 -0.000031 -0.003680
												CHANNELS 6 Xposition Yposition Zposition Xrotation Yrotation Zrotation
												End Site
												{
													OFFSET -211.577087 0.000000 -0.350686
												}
											}
										}
									}
								}
							}
						}
					}
				}
				JOINT mixamorig:LeftShoulder
				{
					OFFSET 4.570447 11.014725 -2.160855
					CHANNELS 6 Xposition Yposition Zposition Xrotation Yrotation Zrotation
					JOINT mixamorig:LeftArm
					{
						OFFSET 10.592371 -0.524597 -2.232119
						CHANNELS 6 Xposition Yposition Zposition Xrotation Yrotation Zrotation
						JOINT mixamorig:LeftForeArm
						{
							OFFSET 27.841532 -0.000031 0.000026
							CHANNELS 6 Xposition Yposition Zposition Xrotation Yrotation Zrotation
							JOINT mixamorig:LeftHand
							{
								OFFSET 28.328846 -0.000061 0.000022
								CHANNELS 6 Xposition Yposition Zposition Xrotation Yrotation Zrotation
								JOINT mixamorig:LeftHandThumb1
								{
									OFFSET 2.466141 -1.576172 2.681732
									CHANNELS 6 Xposition Yposition Zposition Xrotation Yrotation Zrotation
									JOINT mixamorig:LeftHandThumb2
									{
										OFFSET 3.217812 -1.872070 1.916482
										CHANNELS 6 Xposition Yposition Zposition Xrotation Yrotation Zrotation
										JOINT mixamorig:LeftHandThumb3
										{
											OFFSET 2.656029 -1.528778 1.514513
											CHANNELS 6 Xposition Yposition Zposition Xrotation Yrotation Zrotation
											JOINT mixamorig:LeftHandThumb4
											{
												OFFSET 2.020889 -1.154053 1.115139
												CHANNELS 6 Xposition Yposition Zposition Xrotation Yrotation Zrotation
												End Site
												{
													OFFSET 190.885437 -115.081749 130.048782
												}
											}
										}
									}
								}
								JOINT mixamorig:LeftHandIndex1
								{
									OFFSET 9.109314 -0.518021 2.259871
									CHANNELS 6 Xposition Yposition Zposition Xrotation Yrotation Zrotation
									JOINT mixamorig:LeftHandIndex2
									{
										OFFSET 3.699989 0.000000 -0.000322
										CHANNELS 6 Xposition Yposition Zposition Xrotation Yrotation Zrotation
										JOINT mixamorig:LeftHandIndex3
										{
											OFFSET 2.850006 0.000000 0.000352
											CHANNELS 6 Xposition Yposition Zposition Xrotation Yrotation Zrotation
											JOINT mixamorig:LeftHandIndex4
											{
												OFFSET 2.774864 -0.000031 -0.000027
												CHANNELS 6 Xposition Yposition Zposition Xrotation Yrotation Zrotation
												End Site
												{
													OFFSET 277.486267 0.000000 -0.009857
												}
											}
										}
									}
								}
								JOINT mixamorig:LeftHandMiddle1
								{
									OFFSET 9.533394 0.000061 0.000044
									CHANNELS 6 Xposition Yposition Zposition Xrotation Yrotation Zrotation
									JOINT mixamorig:LeftHandMiddle2
									{
										OFFSET 3.699989 -0.000015 -0.000231
										CHANNELS 6 Xposition Yposition Zposition Xrotation Yrotation Zrotation
										JOINT mixamorig:LeftHandMiddle3
										{
											OFFSET 2.949997 -0.000015 -0.000059
											CHANNELS 6 Xposition Yposition Zposition Xrotation Yrotation Zrotation
											JOINT mixamorig:LeftHandMiddle4
											{
												OFFSET 2.952896 0.000031 0.000063
												CHANNELS 6 Xposition Yposition Zposition Xrotation Yrotation Zrotation
												End Site
												{
													OFFSET 295.289337 0.000000 0.022810
												}
											}
										}
									}
								}
								JOINT mixamorig:LeftHandRing1
								{
									OFFSET 9.104523 -0.042999 -1.865074
									CHANNELS 6 Xposition Yposition Zposition Xrotation Yrotation Zrotation
									JOINT mixamorig:LeftHandRing2
									{
										OFFSET 3.150009 -0.000031 0.000043
										CHANNELS 6 Xposition Yposition Zposition Xrotation Yrotation Zrotation
										JOINT mixamorig:LeftHandRing3
										{
											OFFSET 2.949982 -0.000015 0.000040
											CHANNELS 6 Xposition Yposition Zposition Xrotation Yrotation Zrotation
											JOINT mixamorig:LeftHandRing4
											{
												OFFSET 2.644348 0.000000 0.000057
												CHANNELS 6 Xposition Yposition Zposition Xrotation Yrotation Zrotation
												End Site
												{
													OFFSET 264.434631 0.000000 0.012105
												}
											}
										}
									}
								}
								JOINT mixamorig:LeftHandPinky1
								{
									OFFSET 8.077789 -0.486847 -3.806259
									CHANNELS 6 Xposition Yposition Zposition Xrotation Yrotation Zrotation
									JOINT mixamorig:LeftHandPinky2
									{
										OFFSET 3.599953 0.000031 0.014727
										CHANNELS 6 Xposition Yposition Zposition Xrotation Yrotation Zrotation
										JOINT mixamorig:LeftHandPinky3
										{
											OFFSET 2.100021 0.000015 0.007705
											CHANNELS 6 Xposition Yposition Zposition Xrotation Yrotation Zrotation
											JOINT mixamorig:LeftHandPinky4
											{
												OFFSET 2.125504 0.000031 0.007517
												CHANNELS 6 Xposition Yposition Zposition Xrotation Yrotation Zrotation
												End Site
												{
													OFFSET 212.550781 0.000000 0.625752
												}
											}
										}
									}
								}
							}
						}
					}
				}
			}
		}
	}
	JOINT mixamorig:RightUpLeg
	{
		OFFSET -8.207787 -6.751648 -1.599560
		CHANNELS 6 Xposition Yposition Zposition Xrotation Yrotation Zrotation
		JOINT mixamorig:RightLeg
		{
			OFFSET -0.000002 -44.370117 0.345942
			CHANNELS 6 Xposition Yposition Zposition Xrotation Yrotation Zrotation
			JOINT mixamorig:RightFoot
			{
				OFFSET 0.000003 -44.423679 -3.043532
				CHANNELS 6 Xposition Yposition Zposition Xrotation Yrotation Zrotation
				JOINT mixamorig:RightToeBase
				{
					OFFSET -0.000002 -8.728671 10.710558
					CHANNELS 6 Xposition Yposition Zposition Xrotation Yrotation Zrotation
					JOINT mixamorig:RightToe_End
					{
						OFFSET -0.000001 -0.000679 9.278119
						CHANNELS 6 Xposition Yposition Zposition Xrotation Yrotation Zrotation
						End Site
						{
							OFFSET 0.000000 -0.067690 927.812134
						}
					}
				}
			}
		}
	}
	JOINT mixamorig:LeftUpLeg
	{
		OFFSET 8.207793 -6.751686 -1.599556
		CHANNELS 6 Xposition Yposition Zposition Xrotation Yrotation Zrotation
		JOINT mixamorig:LeftLeg
		{
			OFFSET -0.000004 -44.370014 0.346954
			CHANNELS 6 Xposition Yposition Zposition Xrotation Yrotation Zrotation
			JOINT mixamorig:LeftFoot
			{
				OFFSET -0.000001 -44.423672 -3.044401
				CHANNELS 6 Xposition Yposition Zposition Xrotation Yrotation Zrotation
				JOINT mixamorig:LeftToeBase
				{
					OFFSET -0.000002 -8.728669 10.710558
					CHANNELS 6 Xposition Yposition Zposition Xrotation Yrotation Zrotation
					JOINT mixamorig:LeftToe_End
					{
						OFFSET -0.000003 -0.000679 9.278133
						CHANNELS 6 Xposition Yposition Zposition Xrotation Yrotation Zrotation
						End Site
						{
							OFFSET 0.000000 -0.068021 927.813477
						}
					}
				}
			}
		}
	}
}
MOTION
Frames: 3
Frame Time: 0.033333
0.000006 104.270477 1.554256 0.000010 0.000003 -0.000113 -0.000005 10.181587 0.131522 0.000001 -0.000003 0.000084 -0.000000 9.893967 -1.470711 0.000001 0.000000 -0.000000 -0.000000 9.220802 -1.370642 0.000000 -0.000000 -0.000000 0.000001 16.740433 -2.049030 0.000000 -0.000000 -0.000000 0.000000 9.617859 1.685014 0.000000 0.000000 0.000000 0.000002 22.037384 7.501101 0.000000 -0.000000 0.000000 -4.569968 11.014880 -2.160881 0.000008 0.000001 -0.000038 -10.592876 -0.524753 -2.231907 72.712179 28.406079 -21.106319 -27.841528 0.000011 0.000558 -60.130725 108.153887 77.249897 -28.328819 0.000004 0.000021 -0.000318 -0.000044 0.000007 -2.464454 -1.573923 2.682376 -28.834921 -154.438213 29.718723 -3.215269 -1.872602 1.924658 158.061560 32.164980 4.425709 -2.654946 -1.527897 1.513097 147.170277 26.040646 -45.688771 -2.018822 -1.152009 1.108064 -0.000002 0.000004 0.000003 -9.108400 -0.517560 2.260130 100.429066 16.025603 -19.245141 -3.700068 0.000319 0.001513 97.984801 11.637811 -13.342923 -2.850082 0.000376 -0.000265 95.961644 9.467693 -10.501326 -2.772179 -0.000014 -0.000023 -0.000000 -0.000001 0.000000 -9.532584 0.000273 0.000215 89.666600 13.560060 -13.620154 -3.700061 0.000358 0.003953 92.570080 10.080399 -10.443837 -2.950059 0.000338 -0.001817 91.234826 11.015541 -11.246813 -2.946609 0.000014 -0.000151 -0.000008 -0.000000 -0.000000 -9.103703 -0.042755 -1.864902 85.939919 16.267018 -15.125343 -3.379325 0.000323 -0.000788 95.005937 9.955360 -10.879268 -2.889738 0.000356 0.000646 98.035078 7.452501 -8.627269 -2.638812 -0.000014 0.000940 -0.000001 0.000001 0.000004 -8.076738 -0.486391 -3.806103 70.933816 14.867134 -10.513807 -3.600029 0.000269 -0.003571 77.511999 8.346246 -6.418075 -2.100009 0.000304 -0.005530 80.812121 5.753129 -4.711066 -2.115789 -0.000039 -0.003678 0.000001 0.000001 -0.000004 4.570446 11.014691 -2.160851 -0.000018 0.000010 -0.000021 10.592415 -0.524480 -2.232359 71.111756 -18.367864 13.183950 27.841816 0.000085 -0.000178 96.175805 -72.137234 78.114749 28.328833 -0.000029 0.000026 0.000022 -0.000088 -0.000001 2.466228 -1.576096 2.681859 2.684266 160.027316 -85.805713 3.217843 -1.871761 1.916389 164.559283 -27.796969 17.211341 2.656105 -1.528669 1.514487 141.293787 -27.033810 54.001159 2.020894 -1.154057 1.115145 -0.000003 -0.000001 0.000004 9.109357 -0.517899 2.259737 74.083032 -18.633113 14.105900 3.700053 0.000117 -0.000438 74.012790 -21.256992 16.115661 2.850074 0.000141 0.000228 71.798184 -16.894896 12.270709 2.774899 -0.000047 -0.000029 -0.000001 -0.000002 -0.000002 9.533466 0.000169 -0.000085 72.898028 -18.187144 13.477281 3.700050 0.000140 -0.000374 79.515293 -19.568536 16.325667 2.950068 0.000131 -0.000174 77.668950 -21.163116 17.107365 2.952861 -0.000015 0.000065 -0.000000 0.000000 -0.000001 9.104572 -0.042899 -1.865211 71.097263 -17.408421 12.487994 3.150069 0.000161 -0.000083 78.987060 -15.312335 12.645271 2.950010 0.000139 -0.000055 79.287862 -15.851957 13.162165 2.644318 0.000015 0.000057 0.000000 0.000001 -0.000000 8.077846 -0.486752 -3.806393 66.271727 -18.054845 12.244001 3.599995 0.000132 0.014576 67.393046 -14.305261 9.918194 2.100019 0.000137 0.007552 69.874761 -13.281497 9.647150 2.125504 -0.000013 0.007514 -0.000000 0.000001 -0.000000 -8.207786 -6.751667 -1.599560 -0.077001 -0.000003 0.000080 -0.000002 -44.370110 0.345938 0.153719 -0.000000 -0.000000 0.000000 -44.423679 -3.043532 -0.076700 0.000000 -0.000002 -0.000006 -8.728667 10.710559 -0.000009 -0.000000 -0.000000 -0.000001 -0.000679 9.278123 0.000000 -0.000000 -0.000000 8.207792 -6.751710 -1.599556 -0.074518 -0.000003 0.000081 -0.000002 -44.370014 0.346960 0.148822 0.000002 0.000000 -0.000001 -44.423664 -3.044403 -0.074314 0.000000 -0.000002 -0.000004 -8.728671 10.710558 0.000007 -0.000000 -0.000000 0.000000 -0.000680 9.278137 -0.000000 0.000000 -0.000001 
0.000006 104.270477 1.554256 0.000010 0.000003 -0.000113 -0.000005 10.181587 0.131522 0.000001 -0.000003 0.000084 -0.000000 9.893967 -1.470711 0.000001 0.000000 -0.000000 -0.000000 9.220802 -1.370642 0.000000 -0.000000 -0.000000 0.000001 16.740433 -2.049030 0.000000 -0.000000 -0.000000 0.000000 9.617859 1.685014 0.000000 0.000000 0.000000 0.000002 22.037384 7.501101 0.000000 -0.000000 0.000000 -4.569968 11.014880 -2.160881 0.000008 0.000001 -0.000038 -10.592873 -0.524778 -2.231891 72.724200 33.581520 -25.050337 -27.841526 0.000012 0.000540 -57.857474 106.231448 72.745285 -28.328793 0.000019 0.000026 -0.000317 -0.000041 0.000002 -2.464409 -1.573792 2.682332 -45.282143 -162.394264 -3.429467 -3.215281 -1.872580 1.924652 153.676497 31.685538 5.086910 -2.654953 -1.527858 1.513060 145.232539 27.362977 -36.030296 -2.018831 -1.152002 1.108065 -0.000003 0.000001 0.000004 -9.108370 -0.517550 2.260113 98.683871 13.846377 -16.146895 -3.700051 0.000344 0.001514 98.110681 8.671595 -9.963219 -2.850071 0.000387 -0.000270 97.032440 7.050101 -7.969440 -2.772168 0.000002 -0.000021 0.000003 -0.000002 -0.000001 -9.532570 0.000277 0.000220 89.891799 15.243410 -15.355980 -3.700070 0.000317 0.003958 90.367576 10.243563 -10.215921 -2.950033 0.000344 -0.001822 91.796212 10.185606 -10.501044 -2.946615 -0.000012 -0.000156 0.000000 0.000000 -0.000001 -9.103698 -0.042767 -1.864892 87.114712 18.991882 -18.031291 -3.379322 0.000318 -0.000812 90.337264 11.988568 -12.076765 -2.889766 0.000346 0.000650 96.345282 8.061025 -9.055041 -2.638811 -0.000015 0.000939 0.000004 -0.000000 0.000001 -8.076743 -0.486399 -3.806076 73.559546 19.600418 -14.597543 -3.600075 0.000245 -0.003559 74.784055 12.567390 -9.333124 -2.100022 0.000300 -0.005536 80.061988 7.999303 -6.531850 -2.115757 -0.000051 -0.003682 -0.000000 0.000001 -0.000005 4.570446 11.014691 -2.160851 -0.000018 0.000010 -0.000021 10.592402 -0.524482 -2.232366 71.728960 -14.630004 10.604109 27.841812 0.000041 -0.000190 96.168258 -75.415438 81.467396 28.328846 -0.000029 0.000021 0.000020 -0.000088 0.000000 2.466275 -1.575911 2.681790 17.255868 186.401586 -132.310832 3.217885 -1.871879 1.916449 168.934074 -16.129300 53.850970 2.656104 -1.528702 1.514509 142.895754 -25.414263 68.354914 2.020891 -1.154071 1.115157 0.000002 0.000004 0.000002 9.109406 -0.517895 2.259762 74.580734 -24.271970 18.589844 3.700053 0.000125 -0.000454 73.706129 -16.176977 12.173969 2.850043 0.000153 0.000209 74.001391 -12.341152 9.314520 2.774884 -0.000031 -0.000026 -0.000001 -0.000002 0.000001 9.533469 0.000172 -0.000083 73.810706 -21.831445 16.474194 3.700050 0.000165 -0.000373 78.918301 -12.797597 10.546099 2.950041 0.000157 -0.000205 79.811867 -12.040801 10.083389 2.952863 -0.000016 0.000064 -0.000000 0.000001 0.000001 9.104603 -0.042882 -1.865218 74.456575 -21.399287 16.341226 3.150062 0.000168 -0.000079 79.534329 -14.057649 11.718350 2.950002 0.000162 -0.000109 79.861570 -10.752748 9.009884 2.644320 0.000030 0.000053 -0.000000 -0.000001 -0.000001 8.077857 -0.486749 -3.806395 67.375151 -21.744993 15.018165 3.599996 0.000121 0.014580 66.269063 -17.435699 11.789727 2.100037 0.000139 0.007550 69.074454 -12.894251 9.235307 2.125496 -0.000028 0.007520 -0.000002 -0.000000 -0.000003 -8.207786 -6.751667 -1.599560 -0.077001 -0.000003 0.000080 -0.000002 -44.370110 0.345938 0.153719 -0.000000 -0.000000 0.000000 -44.423679 -3.043532 -0.076700 0.000000 -0.000002 -0.000006 -8.728667 10.710559 -0.000009 -0.000000 -0.000000 -0.000001 -0.000679 9.278123 0.000000 -0.000000 -0.000000 8.207792 -6.751710 -1.599556 -0.074518 -0.000003 0.000081 -0.000002 -44.370014 0.346960 0.148822 0.000002 0.000000 -0.000001 -44.423664 -3.044403 -0.074314 0.000000 -0.000002 -0.000004 -8.728671 10.710558 0.000007 -0.000000 -0.000000 0.000000 -0.000680 9.278137 -0.000000 0.000000 -0.000001 
0.000006 104.270477 1.554256 0.000010 0.000003 -0.000113 -0.000005 10.181587 0.131522 0.000001 -0.000003 0.000084 -0.000000 9.893967 -1.470711 0.000001 0.000000 -0.000000 -0.000000 9.220802 -1.370642 0.000000 -0.000000 -0.000000 0.000001 16.740433 -2.049030 0.000000 -0.000000 -0.000000 0.000000 9.617859 1.685014 0.000000 0.000000 0.000000 0.000002 22.037384 7.501101 0.000000 -0.000000 0.000000 -4.569968 11.014880 -2.160881 0.000008 0.000001 -0.000038 -10.592872 -0.524770 -2.231899 72.190339 31.428607 -23.184841 -27.841520 0.000019 0.000542 -55.593495 105.580620 69.542418 -28.328810 0.000021 0.000029 -0.000318 -0.000045 0.000006 -2.464417 -1.573747 2.682310 -50.522486 -167.842009 -17.115242 -3.215275 -1.872572 1.924661 151.979933 30.675288 -0.364918 -2.654956 -1.527877 1.513065 143.109320 27.932013 -33.313807 -2.018838 -1.152000 1.108061 -0.000001 -0.000002 0.000004 -9.108356 -0.517547 2.260121 98.164790 13.574665 -15.689450 -3.700062 0.000325 0.001522 96.800795 9.402676 -10.559059 -2.850070 0.000378 -0.000275 95.354700 7.753223 -8.510272 -2.772179 -0.000001 -0.000021 -0.000000 -0.000003 -0.000003 -9.532580 0.000276 0.000212 88.502299 14.325664 -14.096152 -3.700059 0.000335 0.003937 88.993144 10.368813 -10.097959 -2.950044 0.000338 -0.001807 90.500266 10.283600 -10.366240 -2.946657 0.000004 -0.000155 0.000003 -0.000001 0.000001 -9.103696 -0.042759 -1.864898 85.469156 17.371405 -16.025731 -3.379341 0.000312 -0.000823 89.073638 11.322475 -11.159443 -2.889754 0.000355 0.000633 96.075620 8.049251 -8.999362 -2.638817 -0.000003 0.000940 -0.000001 0.000001 0.000000 -8.076752 -0.486403 -3.806089 73.354948 17.822035 -13.205666 -3.600072 0.000251 -0.003562 75.831643 11.618025 -8.771414 -2.100022 0.000305 -0.005529 82.124405 7.477700 -6.320316 -2.115791 -0.000042 -0.003681 -0.000001 0.000001 -0.000006 4.570446 11.014691 -2.160851 -0.000018 0.000010 -0.000021 10.592413 -0.524475 -2.232372 71.696748 -18.411682 13.357511 27.841820 0.000057 -0.000212 96.321418 -76.660465 82.891019 28.328823 -0.000027 0.000020 0.000021 -0.000089 0.000000 2.466254 -1.575967 2.681802 15.243794 182.346339 -125.531227 3.217853 -1.871889 1.916439 163.759482 -18.247352 53.606805 2.656096 -1.528692 1.514497 139.861210 -27.241153 60.383674 2.020899 -1.154064 1.115148 -0.000001 0.000004 0.000002 9.109367 -0.517880 2.259746 76.849177 -20.823520 16.576089 3.700019 0.000144 -0.000460 75.975117 -14.541592 11.393442 2.850051 0.000156 0.000218 75.814096 -11.684916 9.110175 2.774880 -0.000047 -0.000027 -0.000001 0.000000 -0.000000 9.533443 0.000186 -0.000082 76.272668 -19.178705 15.104364 3.700068 0.000174 -0.000393 80.106549 -12.021597 10.114987 2.950061 0.000157 -0.000218 80.193989 -11.119710 9.373669 2.952865 -0.000031 0.000061 -0.000000 -0.000001 0.000000 9.104566 -0.042861 -1.865229 76.839819 -18.712989 14.892895 3.150046 0.000175 -0.000107 80.280753 -13.422332 11.335348 2.950023 0.000143 -0.000083 79.360289 -10.108026 8.394151 2.644311 0.000046 0.000056 0.000000 0.000001 -0.000000 8.077820 -0.486739 -3.806390 70.117383 -19.779321 14.386316 3.600006 0.000153 0.014574 69.468215 -16.711052 12.003319 2.100028 0.000152 0.007564 71.878390 -11.991701 9.062096 2.125504 -0.000018 0.007516 -0.000001 0.000001 -0.000000 -8.207786 -6.751667 -1.599560 -0.077001 -0.000003 0.000080 -0.000002 -44.370110 0.345938 0.153719 -0.000000 -0.000000 0.000000 -44.423679 -3.043532 -0.076700 0.000000 -0.000002 -0.000006 -8.728667 10.710559 -0.000009 -0.000000 -0.000000 -0.000001 -0.000679 9.278123 0.000000 -0.000000 -0.000000 8.207792 -6.751710 -1.599556 -0.074518 -0.000003 0.000081 -0.000002 -44.370014 0.346960 0.148822 0.000002 0.000000 -0.000001 -44.423664 -3.044403 -0.074314 0.000000 -0.000002 -0.000004 -8.728671 10.710558 0.000007 -0.000000 -0.000000 0.000000 -0.000680 9.278137 -0.000000 0.000000 -0.000001 
